<svg width="256" height="256" viewBox="0 0 256 256" fill="none" xmlns="http://www.w3.org/2000/svg">
<rect width="256" height="256" fill="#BEDB39"/>
<g clip-path="url(#clip0_8_118)">
<path d="M40 94H94" stroke="white" stroke-width="7" stroke-miterlimit="3.99933" stroke-linecap="round"/>
<path d="M40 124H94" stroke="white" stroke-width="7" stroke-miterlimit="3.99933" stroke-linecap="round"/>
<path d="M29 134H83" stroke="white" stroke-width="7" stroke-miterlimit="3.99933" stroke-linecap="round"/>
<path d="M33 154H87" stroke="white" stroke-width="7" stroke-miterlimit="3.99933" stroke-linecap="round"/>
<path d="M46 144H100" stroke="white" stroke-width="7" stroke-miterlimit="3.99933" stroke-linecap="round"/>
<path d="M24 114H78" stroke="white" stroke-width="7" stroke-miterlimit="3.99933" stroke-linecap="round"/>
<path d="M45 104H99" stroke="white" stroke-width="7" stroke-miterlimit="3.99933" stroke-linecap="round"/>
</g>
<circle cx="39" cy="129" r="29" fill="#BEDB39"/>
<circle cx="39" cy="129" r="27" fill="white"/>
<g clip-path="url(#clip1_8_118)">
<path d="M40.5455 128.515C45.3744 128.515 49.303 124.587 49.303 119.758C49.303 114.929 45.3744 111 40.5455 111C40.5266 111 40.5079 111 40.4892 111.001H33.3354C33.3347 111.001 33.3341 111.001 33.3334 111.001C32.4799 111.001 31.788 111.693 31.788 112.546V112.546V126.97V131.606H30.2424C29.3889 131.606 28.697 132.298 28.697 133.152C28.697 134.005 29.3889 134.697 30.2424 134.697H31.7879V143.455C31.7879 144.308 32.4798 145 33.3333 145C34.1868 145 34.8788 144.308 34.8788 143.455V134.697H40.5455C41.399 134.697 42.0909 134.005 42.0909 133.152C42.0909 132.298 41.399 131.606 40.5455 131.606H34.8788V128.515H40.5455ZM40.5455 114.092C40.5622 114.092 40.5788 114.092 40.5953 114.091C43.6972 114.118 46.2121 116.65 46.2121 119.758C46.2121 122.882 43.6701 125.424 40.5455 125.424H34.8788V114.092H40.5455Z" fill="#BEDB39"/>
</g>
<path d="M110.396 118.062V105.943C110.396 105.676 110.484 105.452 110.66 105.27C110.836 105.087 111.051 104.996 111.305 104.996H115.279C115.533 104.996 115.774 105.087 116.002 105.27C116.23 105.452 116.383 105.67 116.461 105.924L119.342 114.264L122.223 105.924C122.301 105.67 122.454 105.452 122.682 105.27C122.91 105.087 123.15 104.996 123.404 104.996H127.379C127.633 104.996 127.844 105.087 128.014 105.27C128.189 105.452 128.277 105.676 128.277 105.943V118.062C128.277 118.329 128.186 118.554 128.004 118.736C127.828 118.912 127.613 119 127.359 119H125.602C125.348 119 125.13 118.912 124.947 118.736C124.771 118.554 124.684 118.329 124.684 118.062V108.521L121.236 118.121C121.145 118.362 120.986 118.57 120.758 118.746C120.53 118.915 120.289 119 120.035 119H118.639C118.385 119 118.144 118.915 117.916 118.746C117.695 118.57 117.535 118.362 117.438 118.121L114 108.521V118.062C114 118.329 113.909 118.554 113.727 118.736C113.551 118.912 113.336 119 113.082 119H111.324C111.07 119 110.852 118.912 110.67 118.736C110.488 118.554 110.396 118.329 110.396 118.062ZM144 117.555C142.672 118.72 140.719 119.303 138.141 119.303C135.569 119.303 133.616 118.72 132.281 117.555C130.947 116.383 130.279 114.531 130.279 111.998C130.279 109.465 130.947 107.617 132.281 106.451C133.616 105.286 135.569 104.703 138.141 104.703C140.719 104.703 142.672 105.286 144 106.451C145.335 107.617 146.002 109.465 146.002 111.998C146.002 114.531 145.335 116.383 144 117.555ZM141.334 108.512C140.676 107.73 139.612 107.34 138.141 107.34C136.676 107.34 135.611 107.73 134.947 108.512C134.29 109.293 133.961 110.458 133.961 112.008C133.961 113.551 134.29 114.713 134.947 115.494C135.611 116.269 136.676 116.656 138.141 116.656C139.612 116.656 140.676 116.269 141.334 115.494C141.992 114.713 142.32 113.551 142.32 112.008C142.32 110.458 141.992 109.293 141.334 108.512ZM148.014 118.082V105.924C148.014 105.657 148.102 105.436 148.277 105.26C148.453 105.084 148.674 104.996 148.941 104.996H150.66C150.914 104.996 151.129 105.084 151.305 105.26C151.487 105.436 151.578 105.65 151.578 105.904V115.68L157.135 105.924C157.285 105.67 157.49 105.452 157.75 105.27C158.01 105.087 158.251 104.996 158.473 104.996H161.354C161.607 104.996 161.822 105.087 161.998 105.27C162.174 105.452 162.262 105.67 162.262 105.924V118.082C162.262 118.336 162.171 118.554 161.988 118.736C161.806 118.912 161.588 119 161.334 119H159.615C159.361 119 159.143 118.912 158.961 118.736C158.785 118.554 158.697 118.336 158.697 118.082V109.02L153.6 118.082C153.45 118.336 153.238 118.554 152.965 118.736C152.691 118.912 152.428 119 152.174 119H148.941C148.688 119 148.469 118.912 148.287 118.736C148.105 118.554 148.014 118.336 148.014 118.082ZM116.676 131.256V130.299C116.676 130.045 116.767 129.83 116.949 129.654C117.132 129.472 117.356 129.381 117.623 129.381H119.42C119.687 129.381 119.908 129.472 120.084 129.654C120.266 129.83 120.357 130.045 120.357 130.299V131.256C122.584 131.256 124.355 131.715 125.67 132.633C126.985 133.544 127.643 134.999 127.643 136.998C127.643 138.997 126.985 140.455 125.67 141.373C124.355 142.285 122.584 142.74 120.357 142.74V143.697C120.357 143.951 120.263 144.166 120.074 144.342C119.892 144.524 119.674 144.615 119.42 144.615H117.623C117.369 144.615 117.148 144.524 116.959 144.342C116.77 144.166 116.676 143.951 116.676 143.697V142.74C114.449 142.74 112.678 142.285 111.363 141.373C110.055 140.455 109.4 138.997 109.4 136.998C109.4 134.999 110.055 133.544 111.363 132.633C112.678 131.715 114.449 131.256 116.676 131.256ZM116.783 140.104V133.902C115.637 133.902 114.732 134.16 114.068 134.674C113.411 135.182 113.082 135.956 113.082 136.998C113.082 138.04 113.411 138.818 114.068 139.332C114.732 139.846 115.637 140.104 116.783 140.104ZM120.26 140.104C121.406 140.104 122.307 139.846 122.965 139.332C123.629 138.818 123.961 138.04 123.961 136.998C123.961 135.956 123.629 135.182 122.965 134.674C122.307 134.16 121.406 133.902 120.26 133.902V140.104ZM129.439 143.082V130.924C129.439 130.657 129.527 130.436 129.703 130.26C129.879 130.084 130.1 129.996 130.367 129.996H132.086C132.34 129.996 132.555 130.084 132.73 130.26C132.913 130.436 133.004 130.65 133.004 130.904V140.68L138.561 130.924C138.71 130.67 138.915 130.452 139.176 130.27C139.436 130.087 139.677 129.996 139.898 129.996H142.779C143.033 129.996 143.248 130.087 143.424 130.27C143.6 130.452 143.688 130.67 143.688 130.924V143.082C143.688 143.336 143.596 143.554 143.414 143.736C143.232 143.912 143.014 144 142.76 144H141.041C140.787 144 140.569 143.912 140.387 143.736C140.211 143.554 140.123 143.336 140.123 143.082V134.02L135.025 143.082C134.876 143.336 134.664 143.554 134.391 143.736C134.117 143.912 133.854 144 133.6 144H130.367C130.113 144 129.895 143.912 129.713 143.736C129.531 143.554 129.439 143.336 129.439 143.082ZM146.49 143.082V130.924C146.49 130.67 146.581 130.452 146.764 130.27C146.946 130.087 147.171 129.996 147.438 129.996H149.254C149.508 129.996 149.723 130.087 149.898 130.27C150.081 130.452 150.172 130.67 150.172 130.924V135.318H156.891V130.924C156.891 130.67 156.982 130.452 157.164 130.27C157.346 130.087 157.564 129.996 157.818 129.996H159.635C159.902 129.996 160.123 130.087 160.299 130.27C160.481 130.452 160.572 130.67 160.572 130.924V143.082C160.572 143.336 160.478 143.554 160.289 143.736C160.107 143.912 159.889 144 159.635 144H157.818C157.564 144 157.346 143.915 157.164 143.746C156.982 143.57 156.891 143.355 156.891 143.102V138.082H150.172V143.102C150.172 143.355 150.081 143.57 149.898 143.746C149.723 143.915 149.508 144 149.254 144H147.438C147.184 144 146.962 143.912 146.773 143.736C146.585 143.554 146.49 143.336 146.49 143.082ZM162.232 143.102L164.684 133.805C165.348 131.272 167.509 130.003 171.168 129.996H176.432C176.673 129.996 176.871 130.087 177.027 130.27C177.19 130.452 177.271 130.663 177.271 130.904V143.102C177.271 143.355 177.18 143.57 176.998 143.746C176.816 143.915 176.598 144 176.344 144H174.508C174.241 144 174.02 143.915 173.844 143.746C173.674 143.57 173.59 143.349 173.59 143.082V140.621H166.646L165.992 143.082C165.927 143.349 165.781 143.57 165.553 143.746C165.325 143.915 165.084 144 164.83 144H162.906C162.652 144 162.47 143.928 162.359 143.785C162.249 143.635 162.193 143.505 162.193 143.395C162.2 143.284 162.213 143.186 162.232 143.102ZM167.369 137.857H173.59V132.76H170.807C170.182 132.76 169.635 132.939 169.166 133.297C168.704 133.648 168.391 134.124 168.229 134.723L167.369 137.857ZM180.064 143.082V130.924C180.064 130.67 180.156 130.452 180.338 130.27C180.52 130.087 180.745 129.996 181.012 129.996H182.828C183.082 129.996 183.297 130.087 183.473 130.27C183.655 130.452 183.746 130.67 183.746 130.924V135.318H190.465V130.924C190.465 130.67 190.556 130.452 190.738 130.27C190.921 130.087 191.139 129.996 191.393 129.996H193.209C193.476 129.996 193.697 130.087 193.873 130.27C194.055 130.452 194.146 130.67 194.146 130.924V143.082C194.146 143.336 194.052 143.554 193.863 143.736C193.681 143.912 193.463 144 193.209 144H191.393C191.139 144 190.921 143.915 190.738 143.746C190.556 143.57 190.465 143.355 190.465 143.102V138.082H183.746V143.102C183.746 143.355 183.655 143.57 183.473 143.746C183.297 143.915 183.082 144 182.828 144H181.012C180.758 144 180.536 143.912 180.348 143.736C180.159 143.554 180.064 143.336 180.064 143.082ZM197.965 142.35C196.76 141.197 196.158 139.417 196.158 137.008C196.158 134.592 196.76 132.809 197.965 131.656C199.176 130.497 200.989 129.918 203.404 129.918H205.582C207.06 129.918 208.365 130.302 209.498 131.07C210.637 131.839 211.207 132.89 211.207 134.225C211.207 134.609 211.093 134.885 210.865 135.055C210.637 135.217 210.416 135.299 210.201 135.299H209.039C208.44 135.299 207.975 134.941 207.643 134.225C207.161 133.196 206.36 132.682 205.24 132.682H203.502C202.076 132.682 201.109 132.988 200.602 133.6C200.094 134.212 199.84 135.344 199.84 136.998C199.84 138.652 200.094 139.788 200.602 140.406C201.109 141.018 202.076 141.324 203.502 141.324H205.445C206.565 141.324 207.363 140.81 207.838 139.781C208.17 139.059 208.639 138.697 209.244 138.697H210.406C210.712 138.697 210.953 138.811 211.129 139.039C211.311 139.267 211.402 139.514 211.402 139.781C211.402 141.116 210.836 142.167 209.703 142.936C208.57 143.697 207.265 144.078 205.787 144.078H203.404C200.989 144.078 199.176 143.502 197.965 142.35ZM213.307 143.062V130.924C213.307 130.657 213.395 130.436 213.57 130.26C213.746 130.084 213.967 129.996 214.234 129.996H216.07C216.324 129.996 216.539 130.087 216.715 130.27C216.897 130.452 216.988 130.67 216.988 130.924V134.762H221.012C222.542 134.762 223.811 135.169 224.82 135.982C225.829 136.796 226.334 137.929 226.334 139.381C226.334 140.833 225.829 141.965 224.82 142.779C223.811 143.593 222.542 144 221.012 144H214.186C213.951 144 213.746 143.909 213.57 143.727C213.395 143.538 213.307 143.316 213.307 143.062ZM216.988 141.236H221.012C222.105 141.236 222.652 140.618 222.652 139.381C222.652 138.137 222.105 137.516 221.012 137.516H216.988V141.236ZM228.287 143.102V130.924C228.287 130.67 228.378 130.452 228.561 130.27C228.743 130.087 228.961 129.996 229.215 129.996H231.07C231.337 129.996 231.559 130.087 231.734 130.27C231.917 130.452 232.008 130.67 232.008 130.924V143.082C232.008 143.336 231.913 143.554 231.725 143.736C231.542 143.912 231.324 144 231.07 144H229.215C228.961 144 228.743 143.915 228.561 143.746C228.378 143.57 228.287 143.355 228.287 143.102Z" fill="white"/>
<defs>
<clipPath id="clip0_8_118">
<rect width="68" height="70" fill="white" transform="translate(36 90)"/>
</clipPath>
<clipPath id="clip1_8_118">
<rect width="34" height="34" fill="white" transform="translate(22 111)"/>
</clipPath>
</defs>
</svg>
