<svg width="256" height="256" viewBox="0 0 256 256" fill="none" xmlns="http://www.w3.org/2000/svg">
<rect width="256" height="256" fill="#BEDB39"/>
<g clip-path="url(#clip0_9_210)">
<path d="M192.031 111.75V82.6641C192.031 82.0234 192.242 81.4844 192.664 81.0469C193.086 80.6094 193.602 80.3906 194.211 80.3906H203.75C204.359 80.3906 204.938 80.6094 205.484 81.0469C206.031 81.4844 206.398 82.0078 206.586 82.6172L213.5 102.633L220.414 82.6172C220.602 82.0078 220.969 81.4844 221.516 81.0469C222.062 80.6094 222.641 80.3906 223.25 80.3906H232.789C233.398 80.3906 233.906 80.6094 234.312 81.0469C234.734 81.4844 234.945 82.0234 234.945 82.6641V111.75C234.945 112.391 234.727 112.93 234.289 113.367C233.867 113.789 233.352 114 232.742 114H228.523C227.914 114 227.391 113.789 226.953 113.367C226.531 112.93 226.32 112.391 226.32 111.75V88.8516L218.047 111.891C217.828 112.469 217.445 112.969 216.898 113.391C216.352 113.797 215.773 114 215.164 114H211.812C211.203 114 210.625 113.797 210.078 113.391C209.547 112.969 209.164 112.469 208.93 111.891L200.68 88.8516V111.75C200.68 112.391 200.461 112.93 200.023 113.367C199.602 113.789 199.086 114 198.477 114H194.258C193.648 114 193.125 113.789 192.688 113.367C192.25 112.93 192.031 112.391 192.031 111.75ZM209.07 144.414V142.117C209.07 141.508 209.289 140.992 209.727 140.57C210.164 140.133 210.703 139.914 211.344 139.914H215.656C216.297 139.914 216.828 140.133 217.25 140.57C217.688 140.992 217.906 141.508 217.906 142.117V144.414C223.25 144.414 227.5 145.516 230.656 147.719C233.812 149.906 235.391 153.398 235.391 158.195C235.391 162.992 233.812 166.492 230.656 168.695C227.5 170.883 223.25 171.977 217.906 171.977V174.273C217.906 174.883 217.68 175.398 217.227 175.82C216.789 176.258 216.266 176.477 215.656 176.477H211.344C210.734 176.477 210.203 176.258 209.75 175.82C209.297 175.398 209.07 174.883 209.07 174.273V171.977C203.727 171.977 199.477 170.883 196.32 168.695C193.18 166.492 191.609 162.992 191.609 158.195C191.609 153.398 193.18 149.906 196.32 147.719C199.477 145.516 203.727 144.414 209.07 144.414ZM209.328 165.648V150.766C206.578 150.766 204.406 151.383 202.812 152.617C201.234 153.836 200.445 155.695 200.445 158.195C200.445 160.695 201.234 162.562 202.812 163.797C204.406 165.031 206.578 165.648 209.328 165.648ZM217.672 165.648C220.422 165.648 222.586 165.031 224.164 163.797C225.758 162.562 226.555 160.695 226.555 158.195C226.555 155.695 225.758 153.836 224.164 152.617C222.586 151.383 220.422 150.766 217.672 150.766V165.648Z" fill="white"/>
</g>
<path d="M173.5 74.9977V182.002" stroke="white" stroke-width="4" stroke-linecap="round"/>
<path d="M56.3871 84H130.419" stroke="white" stroke-width="10" stroke-miterlimit="3.99933" stroke-linecap="round"/>
<path d="M56.3871 125.129H130.419" stroke="white" stroke-width="10" stroke-miterlimit="3.99933" stroke-linecap="round"/>
<path d="M41.3065 138.839H115.339" stroke="white" stroke-width="10" stroke-miterlimit="3.99933" stroke-linecap="round"/>
<path d="M46.7903 166.258H120.823" stroke="white" stroke-width="10" stroke-miterlimit="3.99933" stroke-linecap="round"/>
<path d="M64.6129 152.548H138.645" stroke="white" stroke-width="10" stroke-miterlimit="3.99933" stroke-linecap="round"/>
<path d="M34.4516 111.419H108.484" stroke="white" stroke-width="10" stroke-miterlimit="3.99933" stroke-linecap="round"/>
<path d="M63.2419 97.7097H137.274" stroke="white" stroke-width="10" stroke-miterlimit="3.99933" stroke-linecap="round"/>
<circle cx="55" cy="132" r="39.7407" fill="#BEDB39"/>
<circle cx="55" cy="132" r="37" fill="white"/>
<g clip-path="url(#clip1_9_210)">
<path d="M57.1178 131.336C63.7353 131.336 69.119 125.952 69.119 119.334C69.119 112.717 63.7353 107.333 57.1178 107.333C57.092 107.333 57.0663 107.334 57.0407 107.335H47.2374C47.2364 107.335 47.2356 107.335 47.2347 107.335C46.0651 107.335 45.1169 108.283 45.1169 109.452V109.453V129.218V135.571H42.9989C41.8293 135.571 40.881 136.519 40.881 137.689C40.881 138.859 41.8293 139.807 42.9989 139.807H45.1167V151.808C45.1167 152.978 46.0649 153.926 47.2346 153.926C48.4042 153.926 49.3524 152.978 49.3524 151.808V139.807H57.1178C58.2875 139.807 59.2357 138.859 59.2357 137.689C59.2357 136.519 58.2875 135.571 57.1178 135.571H49.3524V131.336H57.1178ZM57.1178 111.57C57.1407 111.57 57.1636 111.57 57.1862 111.569C61.4368 111.606 64.8833 115.075 64.8833 119.334C64.8833 123.616 61.3997 127.1 57.1178 127.1H49.3524V111.57H57.1178Z" fill="#BEDB39"/>
</g>
<defs>
<clipPath id="clip0_9_210">
<rect width="55" height="119" fill="white" transform="translate(188 69)"/>
</clipPath>
<clipPath id="clip1_9_210">
<rect width="46.5926" height="46.5926" fill="white" transform="translate(31.7037 107.333)"/>
</clipPath>
</defs>
</svg>
